<?xml version="1.0" encoding="UTF-8" standalone="no"?>
<!-- Created with Inkscape (http://www.inkscape.org/) -->

<svg
   xmlns:dc="http://purl.org/dc/elements/1.1/"
   xmlns:cc="http://creativecommons.org/ns#"
   xmlns:rdf="http://www.w3.org/1999/02/22-rdf-syntax-ns#"
   xmlns:svg="http://www.w3.org/2000/svg"
   xmlns="http://www.w3.org/2000/svg"
   xmlns:sodipodi="http://sodipodi.sourceforge.net/DTD/sodipodi-0.dtd"
   xmlns:inkscape="http://www.inkscape.org/namespaces/inkscape"
   width="120.18037"
   height="379.99997"
   viewBox="0 0 31.797722 100.54167"
   version="1.1"
   id="svg4541"
   sodipodi:docname="MyasmaDist.svg"
   inkscape:version="0.92.2 (5c3e80d, 2017-08-06)">
  <defs
     id="defs4535" />
  <sodipodi:namedview
     id="base"
     pagecolor="#ffffff"
     bordercolor="#666666"
     borderopacity="1.0"
     inkscape:pageopacity="0.0"
     inkscape:pageshadow="2"
     inkscape:zoom="1.979899"
     inkscape:cx="135.33516"
     inkscape:cy="204.61464"
     inkscape:document-units="mm"
     inkscape:current-layer="g13178"
     showgrid="false"
     fit-margin-top="0"
     fit-margin-left="0"
     fit-margin-right="0"
     fit-margin-bottom="0"
     inkscape:window-width="1920"
     inkscape:window-height="1080"
     inkscape:window-x="0"
     inkscape:window-y="18"
     inkscape:window-maximized="1"
     units="px" />
  <metadata
     id="metadata4538">
    <rdf:RDF>
      <cc:Work
         rdf:about="">
        <dc:format>image/svg+xml</dc:format>
        <dc:type
           rdf:resource="http://purl.org/dc/dcmitype/StillImage" />
        <dc:title />
      </cc:Work>
    </rdf:RDF>
  </metadata>
  <g
     inkscape:label="Layer 1"
     inkscape:groupmode="layer"
     id="layer1"
     transform="translate(-49.620829,-52.061968)">
    <g
       transform="matrix(0.27602379,0,0,0.27602379,354.09618,57.736346)"
       id="g13122"
       style="stroke-width:0.9585526">
      <g
         transform="translate(-167.07644,-20.557569)"
         id="g13178"
         style="stroke-width:0.91882312">
        <path
           style="fill:#e6e6e6;fill-opacity:1;fill-rule:nonzero;stroke:none;stroke-width:0.91882312"
           d="m -935.73442,0.265625 h 114.66797 V 363.98828 h -114.66797 z m 0,0"
           id="path25057"
           inkscape:connector-curvature="0" />
        <path
           style="fill:#000000;fill-opacity:1;fill-rule:nonzero;stroke:none;stroke-width:0.91882312"
           d="m -886.20317,352.50781 c -0.33203,0 -0.63281,-0.1875 -0.78125,-0.48437 l -2.84375,-5.6836 c -0.21484,-0.42968 -0.0391,-0.95703 0.39063,-1.17187 0.43359,-0.21484 0.95703,-0.0391 1.17578,0.39062 l 2.05859,4.1211 2.05859,-4.1211 c 0.21485,-0.42968 0.74219,-0.60546 1.17188,-0.39062 0.43359,0.21484 0.60937,0.74219 0.39062,1.17187 l -2.83984,5.6836 c -0.14844,0.29687 -0.44922,0.48437 -0.78125,0.48437"
           id="path25239"
           inkscape:connector-curvature="0" />
        <path
           style="fill:#000000;fill-opacity:1;fill-rule:nonzero;stroke:none;stroke-width:0.91882312"
           d="m -870.5977,352.50781 c -0.33203,0 -0.63281,-0.1875 -0.78125,-0.48437 l -2.83984,-5.6836 c -0.21875,-0.42968 -0.043,-0.95703 0.39062,-1.17187 0.42969,-0.21484 0.95703,-0.0391 1.17188,0.39062 l 2.05859,4.1211 2.05859,-4.1211 c 0.21875,-0.42968 0.74219,-0.60546 1.17578,-0.39062 0.42969,0.21484 0.60547,0.74219 0.39063,1.17187 l -2.84375,5.6836 c -0.14453,0.29687 -0.44922,0.48437 -0.78125,0.48437"
           id="path25241"
           inkscape:connector-curvature="0" />
        <path
           style="fill:#000000;fill-opacity:1;fill-rule:nonzero;stroke:none;stroke-width:0.91882312"
           d="m -877.97661,352.50781 c -2.04687,0 -3.71484,-1.66797 -3.71484,-3.71484 0,-2.05078 1.66797,-3.71875 3.71484,-3.71875 0.8125,0 1.58203,0.25781 2.23047,0.74609 0.38672,0.28907 0.46485,0.83594 0.17578,1.22266 -0.29297,0.38672 -0.83984,0.46484 -1.22656,0.17578 -0.33984,-0.25781 -0.75,-0.39453 -1.17969,-0.39453 -1.08593,0 -1.96484,0.88281 -1.96484,1.96875 0,1.08203 0.87891,1.96484 1.96484,1.96484 0.42969,0 0.83985,-0.13672 1.17969,-0.39062 0.38672,-0.29297 0.93359,-0.21485 1.22656,0.17187 0.28907,0.38672 0.21094,0.9336 -0.17578,1.22657 -0.64844,0.48437 -1.41797,0.74218 -2.23047,0.74218"
           id="path25243"
           inkscape:connector-curvature="0" />
        <path
           style="fill:#000000;fill-opacity:1;fill-rule:nonzero;stroke:none;stroke-width:0.91882312"
           d="m -876.78129,348.74609 c 0,0.62891 -0.51172,1.13672 -1.13672,1.13672 -0.62891,0 -1.13672,-0.50781 -1.13672,-1.13672 0,-0.625 0.50781,-1.13671 1.13672,-1.13671 0.625,0 1.13672,0.51171 1.13672,1.13671"
           id="path25245"
           inkscape:connector-curvature="0" />
        <path
           style="fill:#212121;fill-opacity:1;fill-rule:nonzero;stroke:none;stroke-width:0.91882312"
           d="m -828.96098,297.40625 c 0,-1.55859 -1.27735,-2.83203 -2.83594,-2.83203 h -21.77344 c -1.55859,0 -2.83593,1.27344 -2.83593,2.83203 v 33.08984 c 0,1.5586 1.27734,2.83594 2.83593,2.83594 h 21.77344 c 1.55859,0 2.83594,-1.27734 2.83594,-2.83594 z m 0,0"
           id="path25247"
           inkscape:connector-curvature="0" />
        <path
           inkscape:connector-curvature="0"
           id="path11938"
           d="m -849.13823,302.85642 c 0,0.28125 0.21875,0.5 0.5,0.5 0.28125,0 0.5,-0.21875 0.5,-0.5 v -1.35937 h 1.84375 v 1.35937 c 0,0.28125 0.21875,0.5 0.5,0.5 0.28125,0 0.5,-0.21875 0.5,-0.5 v -3.625 c 0,-0.28125 -0.21875,-0.5 -0.5,-0.5 -0.28125,0 -0.5,0.21875 -0.5,0.5 v 1.34375 h -1.84375 v -1.34375 c 0,-0.28125 -0.21875,-0.5 -0.5,-0.5 -0.28125,0 -0.5,0.21875 -0.5,0.5 z m 0,0"
           style="fill:#e6e6e6;fill-opacity:1;stroke:none;stroke-width:0.91882312" />
        <path
           inkscape:connector-curvature="0"
           id="path11934"
           d="m -843.94993,302.85642 c 0,0.28125 0.21875,0.5 0.5,0.5 0.28125,0 0.5,-0.21875 0.5,-0.5 v -0.89062 h 0.76562 c 1.01563,0 1.82813,-0.54688 1.82813,-1.60938 v -0.0156 c 0,-0.92188 -0.65625,-1.5625 -1.73438,-1.5625 h -1.35937 c -0.28125,0 -0.5,0.21875 -0.5,0.5 z m 1,-1.78125 v -1.39062 h 0.78125 c 0.5,0 0.8125,0.23437 0.8125,0.6875 v 0.0156 c 0,0.39063 -0.29688,0.6875 -0.79688,0.6875 z m 0,0"
           style="fill:#e6e6e6;fill-opacity:1;stroke:none;stroke-width:0.91882312" />
        <path
           inkscape:connector-curvature="0"
           id="path11930"
           d="m -839.39991,302.85642 c 0,0.28125 0.21875,0.5 0.5,0.5 0.28125,0 0.5,-0.21875 0.5,-0.5 v -1.29687 h 1.75 c 0.26562,0 0.45312,-0.20313 0.45312,-0.45313 0,-0.25 -0.1875,-0.45312 -0.45312,-0.45312 h -1.75 v -0.96875 h 2.04687 c 0.25,0 0.45313,-0.20313 0.45313,-0.45313 0,-0.25 -0.20313,-0.45312 -0.45313,-0.45312 h -2.54687 c -0.28125,0 -0.5,0.21875 -0.5,0.5 z m 0,0"
           style="fill:#e6e6e6;fill-opacity:1;stroke:none;stroke-width:0.91882312" />
        <path
           style="fill:#212121;fill-opacity:1;fill-rule:nonzero;stroke:none;stroke-width:0.91882312"
           d="m -864.67583,297.40625 c 0,-1.55859 -1.27734,-2.83203 -2.83593,-2.83203 h -21.77735 c -1.55859,0 -2.83203,1.27344 -2.83203,2.83203 v 33.08984 c 0,1.5586 1.27344,2.83594 2.83203,2.83594 h 21.77735 c 1.55859,0 2.83593,-1.27734 2.83593,-2.83594 z m 0,0"
           id="path25259"
           inkscape:connector-curvature="0" />
        <path
           inkscape:connector-curvature="0"
           id="path11926"
           d="m -884.35011,302.82517 c 0,0.28125 0.21875,0.5 0.5,0.5 h 2.35937 c 0.25,0 0.45313,-0.20312 0.45313,-0.45312 0,-0.25 -0.20313,-0.45313 -0.45313,-0.45313 h -1.85937 v -3.1875 c 0,-0.28125 -0.21875,-0.5 -0.5,-0.5 -0.28125,0 -0.5,0.21875 -0.5,0.5 z m 0,0"
           style="fill:#e6e6e6;fill-opacity:1;stroke:none;stroke-width:0.91882312" />
        <path
           inkscape:connector-curvature="0"
           id="path11922"
           d="m -880.17063,302.85642 c 0,0.28125 0.21875,0.5 0.5,0.5 0.28125,0 0.5,-0.21875 0.5,-0.5 v -0.89062 h 0.76562 c 1.01563,0 1.82813,-0.54688 1.82813,-1.60938 v -0.0156 c 0,-0.92188 -0.65625,-1.5625 -1.73438,-1.5625 h -1.35937 c -0.28125,0 -0.5,0.21875 -0.5,0.5 z m 1,-1.78125 v -1.39062 h 0.78125 c 0.5,0 0.8125,0.23437 0.8125,0.6875 v 0.0156 c 0,0.39063 -0.29688,0.6875 -0.79688,0.6875 z m 0,0"
           style="fill:#e6e6e6;fill-opacity:1;stroke:none;stroke-width:0.91882312" />
        <path
           inkscape:connector-curvature="0"
           id="path11918"
           d="m -875.61866,302.85642 c 0,0.28125 0.21875,0.5 0.5,0.5 0.28125,0 0.5,-0.21875 0.5,-0.5 v -1.29687 h 1.75 c 0.26562,0 0.45312,-0.20313 0.45312,-0.45313 0,-0.25 -0.1875,-0.45312 -0.45312,-0.45312 h -1.75 v -0.96875 h 2.04687 c 0.25,0 0.45313,-0.20313 0.45313,-0.45313 0,-0.25 -0.20313,-0.45312 -0.45313,-0.45312 h -2.54687 c -0.28125,0 -0.5,0.21875 -0.5,0.5 z m 0,0"
           style="fill:#e6e6e6;fill-opacity:1;stroke:none;stroke-width:0.91882312" />
        <path
           inkscape:connector-curvature="0"
           id="path11914"
           d="m -923.18889,259.00628 c 0,0.21875 0.1875,0.39063 0.40625,0.39063 0.21875,0 0.40625,-0.17188 0.40625,-0.39063 v -1.5 h 1.95313 c 0.20312,0 0.375,-0.15625 0.375,-0.35937 0,-0.20313 -0.17188,-0.35938 -0.375,-0.35938 h -1.95313 v -1.25 h 2.25 c 0.20313,0 0.35938,-0.15625 0.35938,-0.35937 0,-0.20313 -0.15625,-0.35938 -0.35938,-0.35938 h -2.65625 c -0.21875,0 -0.40625,0.17188 -0.40625,0.40625 z m 0,0"
           style="fill:#000000;fill-opacity:1;stroke:none;stroke-width:0.91882312" />
        <path
           inkscape:connector-curvature="0"
           id="path11910"
           d="m -918.78642,259.00628 c 0,0.21875 0.1875,0.39063 0.40625,0.39063 0.21875,0 0.40625,-0.17188 0.40625,-0.39063 v -1.23437 h 1 l 1.10937,1.42187 c 0.0937,0.125 0.20313,0.20313 0.39063,0.20313 0.1875,0 0.375,-0.14063 0.375,-0.375 0,-0.125 -0.0469,-0.20313 -0.125,-0.29688 l -0.875,-1.09375 c 0.60937,-0.20312 1.03125,-0.64062 1.03125,-1.35937 v -0.0156 c 0,-0.40625 -0.125,-0.73437 -0.375,-0.98437 -0.28125,-0.28125 -0.73438,-0.45313 -1.3125,-0.45313 h -1.625 c -0.21875,0 -0.40625,0.17188 -0.40625,0.40625 z m 0.8125,-1.9375 v -1.53125 h 1.15625 c 0.59375,0 0.9375,0.26563 0.9375,0.76563 0,0.46875 -0.35938,0.76562 -0.9375,0.76562 z m 0,0"
           style="fill:#000000;fill-opacity:1;stroke:none;stroke-width:0.91882312" />
        <path
           inkscape:connector-curvature="0"
           id="path11906"
           d="m -913.45188,259.36566 h 2.6875 c 0.1875,0 0.35937,-0.15625 0.35937,-0.35938 0,-0.1875 -0.17187,-0.35937 -0.35937,-0.35937 h -2.28125 v -1.21875 h 1.95312 c 0.1875,0 0.35938,-0.15625 0.35938,-0.34375 0,-0.20313 -0.17188,-0.375 -0.35938,-0.375 h -1.95312 v -1.17188 h 2.25 c 0.1875,0 0.34375,-0.15625 0.34375,-0.35937 0,-0.20313 -0.15625,-0.35938 -0.34375,-0.35938 h -2.65625 c -0.21875,0 -0.40625,0.17188 -0.40625,0.40625 v 3.73438 c 0,0.23437 0.1875,0.40625 0.40625,0.40625 z m 0,0"
           style="fill:#000000;fill-opacity:1;stroke:none;stroke-width:0.91882312" />
        <path
           inkscape:connector-curvature="0"
           id="path11902"
           d="m -907.24675,259.44378 c 0.53125,0 1,-0.15625 1.39062,-0.42187 l 0.32813,0.28125 c 0.0625,0.0781 0.15625,0.125 0.28125,0.125 0.20312,0 0.375,-0.17188 0.375,-0.39063 0,-0.14062 -0.0625,-0.23437 -0.15625,-0.3125 l -0.28125,-0.23437 c 0.28125,-0.40625 0.45312,-0.89063 0.45312,-1.40625 0,-1.28125 -0.96875,-2.34375 -2.375,-2.34375 -1.39062,0 -2.375,1.0625 -2.375,2.34375 v 0.0156 c 0,1.28125 0.96875,2.34375 2.35938,2.34375 z m 0.23437,-1.4375 0.57813,0.48438 c -0.23438,0.14062 -0.5,0.21875 -0.79688,0.21875 -0.90625,0 -1.54687,-0.73438 -1.54687,-1.625 0,-0.89063 0.64062,-1.60938 1.53125,-1.60938 0.90625,0 1.54687,0.73438 1.54687,1.60938 v 0.0156 c 0,0.32813 -0.0781,0.625 -0.21875,0.875 l -0.57812,-0.54687 c -0.0937,-0.0781 -0.17188,-0.10938 -0.28125,-0.10938 -0.20313,0 -0.375,0.17188 -0.375,0.39063 0,0.125 0.0625,0.21875 0.14062,0.29687 z m 0,0"
           style="fill:#000000;fill-opacity:1;stroke:none;stroke-width:0.91882312" />
        <path
           inkscape:connector-curvature="0"
           id="path11898"
           d="m -852.91088,258.95941 c 0,0.23437 0.1875,0.40625 0.40625,0.40625 h 1.29688 c 1.4375,0 2.42187,-1 2.42187,-2.28125 0,-1.28125 -0.98437,-2.26563 -2.42187,-2.26563 h -1.29688 c -0.21875,0 -0.40625,0.17188 -0.40625,0.40625 z m 0.8125,-0.32813 v -3.09375 h 0.89063 c 0.95312,0 1.57812,0.65625 1.57812,1.54688 v 0.0156 c 0,0.89063 -0.625,1.53125 -1.57812,1.53125 z m 0,0"
           style="fill:#000000;fill-opacity:1;stroke:none;stroke-width:0.91882312" />
        <path
           inkscape:connector-curvature="0"
           id="path11894"
           d="m -847.63676,259.00628 c 0,0.21875 0.1875,0.39063 0.40625,0.39063 0.21875,0 0.40625,-0.17188 0.40625,-0.39063 v -1.23437 h 1 l 1.10937,1.42187 c 0.0937,0.125 0.20313,0.20313 0.39063,0.20313 0.1875,0 0.375,-0.14063 0.375,-0.375 0,-0.125 -0.0469,-0.20313 -0.125,-0.29688 l -0.875,-1.09375 c 0.60937,-0.20312 1.03125,-0.64062 1.03125,-1.35937 v -0.0156 c 0,-0.40625 -0.125,-0.73437 -0.375,-0.98437 -0.28125,-0.28125 -0.73438,-0.45313 -1.3125,-0.45313 h -1.625 c -0.21875,0 -0.40625,0.17188 -0.40625,0.40625 z m 0.8125,-1.9375 v -1.53125 h 1.15625 c 0.59375,0 0.9375,0.26563 0.9375,0.76563 0,0.46875 -0.35938,0.76562 -0.9375,0.76562 z m 0,0"
           style="fill:#000000;fill-opacity:1;stroke:none;stroke-width:0.91882312" />
        <path
           inkscape:connector-curvature="0"
           id="path11890"
           d="m -842.68239,259.00628 c 0,0.21875 0.1875,0.39063 0.40625,0.39063 0.21875,0 0.40625,-0.17188 0.40625,-0.39063 v -3.82812 c 0,-0.21875 -0.1875,-0.39063 -0.40625,-0.39063 -0.21875,0 -0.40625,0.17188 -0.40625,0.39063 z m 0,0"
           style="fill:#000000;fill-opacity:1;stroke:none;stroke-width:0.91882312" />
        <path
           inkscape:connector-curvature="0"
           id="path11886"
           d="m -838.78353,259.42816 h 0.0469 c 0.21875,0 0.375,-0.125 0.45312,-0.32813 l 1.60938,-3.76562 c 0.0156,-0.0469 0.0312,-0.10938 0.0312,-0.17188 0,-0.20312 -0.17188,-0.375 -0.39063,-0.375 -0.1875,0 -0.32812,0.125 -0.39062,0.25 l -1.32813,3.3125 -1.3125,-3.28125 c -0.0625,-0.17187 -0.20312,-0.28125 -0.40625,-0.28125 -0.23437,0 -0.40625,0.17188 -0.40625,0.39063 0,0.0625 0.0156,0.125 0.0469,0.1875 l 1.59375,3.73437 c 0.0781,0.20313 0.23437,0.32813 0.45312,0.32813 z m 0,0"
           style="fill:#000000;fill-opacity:1;stroke:none;stroke-width:0.91882312" />
        <path
           inkscape:connector-curvature="0"
           id="path11882"
           d="m -835.25557,259.36566 h 2.6875 c 0.1875,0 0.35938,-0.15625 0.35938,-0.35938 0,-0.1875 -0.17188,-0.35937 -0.35938,-0.35937 h -2.28125 v -1.21875 h 1.95313 c 0.1875,0 0.35937,-0.15625 0.35937,-0.34375 0,-0.20313 -0.17187,-0.375 -0.35937,-0.375 h -1.95313 v -1.17188 h 2.25 c 0.1875,0 0.34375,-0.15625 0.34375,-0.35937 0,-0.20313 -0.15625,-0.35938 -0.34375,-0.35938 h -2.65625 c -0.21875,0 -0.40625,0.17188 -0.40625,0.40625 v 3.73438 c 0,0.23437 0.1875,0.40625 0.40625,0.40625 z m 0,0"
           style="fill:#000000;fill-opacity:1;stroke:none;stroke-width:0.91882312" />
        <path
           inkscape:connector-curvature="0"
           id="path11878"
           d="m -884.64387,259.00628 c 0,0.21875 0.1875,0.39063 0.40625,0.39063 0.21875,0 0.40625,-0.17188 0.40625,-0.39063 v -1.23437 h 1 l 1.10937,1.42187 c 0.0937,0.125 0.20313,0.20313 0.39063,0.20313 0.1875,0 0.375,-0.14063 0.375,-0.375 0,-0.125 -0.0469,-0.20313 -0.125,-0.29688 l -0.875,-1.09375 c 0.60937,-0.20312 1.03125,-0.64062 1.03125,-1.35937 v -0.0156 c 0,-0.40625 -0.125,-0.73437 -0.375,-0.98437 -0.28125,-0.28125 -0.73438,-0.45313 -1.3125,-0.45313 h -1.625 c -0.21875,0 -0.40625,0.17188 -0.40625,0.40625 z m 0.8125,-1.9375 v -1.53125 h 1.15625 c 0.59375,0 0.9375,0.26563 0.9375,0.76563 0,0.46875 -0.35938,0.76562 -0.9375,0.76562 z m 0,0"
           style="fill:#000000;fill-opacity:1;stroke:none;stroke-width:0.91882312" />
        <path
           inkscape:connector-curvature="0"
           id="path11874"
           d="m -879.30867,259.36566 h 2.6875 c 0.1875,0 0.35938,-0.15625 0.35938,-0.35938 0,-0.1875 -0.17188,-0.35937 -0.35938,-0.35937 h -2.28125 v -1.21875 h 1.95313 c 0.1875,0 0.35937,-0.15625 0.35937,-0.34375 0,-0.20313 -0.17187,-0.375 -0.35937,-0.375 h -1.95313 v -1.17188 h 2.25 c 0.1875,0 0.34375,-0.15625 0.34375,-0.35937 0,-0.20313 -0.15625,-0.35938 -0.34375,-0.35938 h -2.65625 c -0.21875,0 -0.40625,0.17188 -0.40625,0.40625 v 3.73438 c 0,0.23437 0.1875,0.40625 0.40625,0.40625 z m 0,0"
           style="fill:#000000;fill-opacity:1;stroke:none;stroke-width:0.91882312" />
        <path
           inkscape:connector-curvature="0"
           id="path11870"
           d="m -873.57119,259.42816 c 0.96875,0 1.625,-0.5 1.625,-1.35938 v -0.0156 c 0,-0.75 -0.48437,-1.09375 -1.45312,-1.32813 -0.875,-0.20312 -1.07813,-0.35937 -1.07813,-0.71875 0,-0.3125 0.26563,-0.54687 0.73438,-0.54687 0.35937,0 0.70312,0.10937 1.04687,0.34375 0.0625,0.0469 0.125,0.0625 0.20313,0.0625 0.21875,0 0.39062,-0.17188 0.39062,-0.375 0,-0.15625 -0.0937,-0.26563 -0.1875,-0.3125 -0.40625,-0.28125 -0.85937,-0.42188 -1.4375,-0.42188 -0.90625,0 -1.54687,0.53125 -1.54687,1.3125 v 0.0156 c 0,0.84375 0.53125,1.125 1.5,1.35937 0.85937,0.1875 1.03125,0.375 1.03125,0.6875 v 0.0156 c 0,0.34375 -0.3125,0.57812 -0.79688,0.57812 -0.5,0 -0.90625,-0.17187 -1.28125,-0.46875 -0.0469,-0.0469 -0.125,-0.0781 -0.23437,-0.0781 -0.20313,0 -0.375,0.17187 -0.375,0.375 0,0.125 0.0625,0.23437 0.15625,0.3125 0.5,0.375 1.09375,0.5625 1.70312,0.5625 z m 0,0"
           style="fill:#000000;fill-opacity:1;stroke:none;stroke-width:0.91882312" />
        <path
           style="fill:none;stroke:#000000;stroke-width:0.47927633;stroke-linecap:round;stroke-linejoin:round;stroke-miterlimit:10;stroke-opacity:1"
           d="m -928.80083,245.32813 h 100.80079"
           id="path25367"
           inkscape:connector-curvature="0" />
        <path
           inkscape:connector-curvature="0"
           id="path11798"
           d="m -917.19441,302.9658 c 0,0.21875 0.1875,0.39062 0.40625,0.39062 0.21875,0 0.40625,-0.17187 0.40625,-0.39062 v -3.82813 c 0,-0.21875 -0.1875,-0.39062 -0.40625,-0.39062 -0.21875,0 -0.40625,0.17187 -0.40625,0.39062 z m 0,0"
           style="fill:#000000;fill-opacity:1;stroke:none;stroke-width:0.91882312" />
        <path
           inkscape:connector-curvature="0"
           id="path11794"
           d="m -914.97276,302.9658 c 0,0.21875 0.1875,0.39062 0.40625,0.39062 0.21875,0 0.39062,-0.17187 0.39062,-0.39062 v -2.89063 l 2.34375,3.03125 c 0.10938,0.14063 0.21875,0.25 0.40625,0.25 h 0.0312 c 0.21875,0 0.39063,-0.1875 0.39063,-0.40625 v -3.8125 c 0,-0.21875 -0.17188,-0.39062 -0.39063,-0.39062 -0.21875,0 -0.39062,0.17187 -0.39062,0.39062 v 2.79688 l -2.28125,-2.95313 c -0.10938,-0.14062 -0.21875,-0.23437 -0.40625,-0.23437 h -0.0937 c -0.21875,0 -0.40625,0.1875 -0.40625,0.40625 z m 0,0"
           style="fill:#000000;fill-opacity:1;stroke:none;stroke-width:0.91882312" />
        <path
           inkscape:connector-curvature="0"
           id="path11866"
           d="m -892.1266,46.732681 c 0,0.34375 0.26563,0.609375 0.60938,0.609375 0.34375,0 0.60937,-0.265625 0.60937,-0.609375 v -2.28125 h 3.03125 c 0.29688,0 0.54688,-0.25 0.54688,-0.5625 0,-0.3125 -0.25,-0.5625 -0.54688,-0.5625 h -3.03125 v -1.90625 h 3.46875 c 0.3125,0 0.5625,-0.25 0.5625,-0.5625 0,-0.3125 -0.25,-0.5625 -0.5625,-0.5625 h -4.07812 c -0.34375,0 -0.60938,0.265625 -0.60938,0.625 z m 0,0"
           style="fill:#000000;fill-opacity:1;stroke:none;stroke-width:0.91882312" />
        <path
           inkscape:connector-curvature="0"
           id="path11858"
           d="m -876.95408,47.295181 h 4.125 c 0.29687,0 0.54687,-0.234375 0.54687,-0.546875 0,-0.296875 -0.25,-0.546875 -0.54687,-0.546875 h -3.51563 v -1.890625 h 3.01563 c 0.29687,0 0.54687,-0.234375 0.54687,-0.53125 0,-0.3125 -0.25,-0.5625 -0.54687,-0.5625 h -3.01563 v -1.828125 h 3.46875 c 0.29688,0 0.54688,-0.234375 0.54688,-0.546875 0,-0.296875 -0.25,-0.546875 -0.54688,-0.546875 h -4.07812 c -0.34375,0 -0.60938,0.265625 -0.60938,0.625 v 5.75 c 0,0.359375 0.26563,0.625 0.60938,0.625 z m 0,0"
           style="fill:#000000;fill-opacity:1;stroke:none;stroke-width:0.91882312" />
        <path
           inkscape:connector-curvature="0"
           id="path11858-2"
           d="m -884.24346,47.295181 h 4.125 c 0.29687,0 0.54687,-0.234375 0.54687,-0.546875 0,-0.296875 -0.25,-0.546875 -0.54687,-0.546875 h -3.51563 v -1.890625 h 3.01563 c 0.29687,0 0.54687,-0.234375 0.54687,-0.53125 0,-0.3125 -0.25,-0.5625 -0.54687,-0.5625 h -3.01563 v -1.828125 h 3.46875 c 0.29688,0 0.54688,-0.234375 0.54688,-0.546875 0,-0.296875 -0.25,-0.546875 -0.54688,-0.546875 h -4.07812 c -0.34375,0 -0.60938,0.265625 -0.60938,0.625 v 5.75 c 0,0.359375 0.26563,0.625 0.60938,0.625 z m 0,0"
           style="fill:#000000;fill-opacity:1;stroke:none;stroke-width:0.91882312" />
        <path
           inkscape:connector-curvature="0"
           id="path11790-1"
           d="m -870.59262,46.791744 c 0,0.358708 0.25573,0.637702 0.58453,0.637702 h 1.86318 c 2.04585,0 3.47064,-1.554398 3.47064,-3.56715 v -0.0199 c 0,-2.012752 -1.42479,-3.547215 -3.47064,-3.547215 h -1.86318 c -0.3288,0 -0.58453,0.25906 -0.58453,0.617767 z m 1.15078,-0.49821 v -4.862475 h 1.29693 c 1.36999,0 2.26505,1.036265 2.26505,2.431237 v 0.0199 c 0,1.394972 -0.89506,2.411302 -2.26505,2.411302 z m 0,0"
           style="fill:#000000;fill-opacity:1;stroke:none;stroke-width:1.12194991" />
        <g
           aria-label="GAIN"
           style="font-style:normal;font-variant:normal;font-weight:normal;font-stretch:normal;font-size:92.02105713px;line-height:1.25;font-family:'Angsana New';-inkscape-font-specification:'Angsana New';letter-spacing:0px;word-spacing:0px;display:inline;fill:#000000;fill-opacity:1;stroke:none;stroke-width:0.88074034"
           id="text172">
          <path
             d="m -915.23021,125.14949 q 0,0.47179 0.12669,0.86931 0.12668,0.39316 0.38005,0.68147 0.25773,0.28395 0.63779,0.44558 0.38005,0.16163 0.88678,0.16163 0.28395,0 0.581,-0.0611 0.29705,-0.0655 0.51984,-0.17474 v -1.23189 h -1.26247 v -0.72516 h 2.12304 v 2.40699 q -0.44994,0.25774 -0.97415,0.38442 -0.51984,0.12232 -1.0921,0.12232 -0.664,0 -1.18821,-0.21405 -0.5242,-0.21405 -0.88678,-0.58974 -0.36258,-0.38005 -0.55479,-0.89989 -0.18784,-0.51984 -0.18784,-1.13141 0,-0.69895 0.23152,-1.24937 0.23153,-0.55042 0.63342,-0.93047 0.4019,-0.38442 0.94795,-0.58536 0.55042,-0.20532 1.18383,-0.20532 0.52421,0 1.00911,0.13105 0.48926,0.13106 0.88678,0.38005 l -0.009,0.86932 q -0.20094,-0.14853 -0.43247,-0.26648 -0.23152,-0.12231 -0.48052,-0.20531 -0.24463,-0.0874 -0.49363,-0.13542 -0.24463,-0.0481 -0.48053,-0.0481 -0.48489,0 -0.87804,0.16163 -0.38879,0.15726 -0.664,0.44994 -0.27084,0.28832 -0.41937,0.69458 -0.14416,0.40626 -0.14416,0.89552 z"
             style="font-style:normal;font-variant:normal;font-weight:normal;font-stretch:normal;font-size:8.94649124px;font-family:'Estrangelo Edessa';-inkscape-font-specification:'Estrangelo Edessa';stroke-width:0.88074034"
             id="path219"
             inkscape:connector-curvature="0" />
          <path
             d="m -905.28335,127.94964 h -0.92173 l -0.63342,-1.62068 h -2.17547 l -0.58973,1.62068 h -0.92174 l 2.19294,-5.65272 h 0.83 z m -2.52931,-4.29414 q -0.0218,-0.0612 -0.0568,-0.17474 -0.0306,-0.11795 -0.0524,-0.24463 h -0.0175 q -0.0218,0.13542 -0.0568,0.25337 -0.0306,0.11358 -0.0612,0.19221 l -0.68584,1.89589 h 1.64689 z"
             style="font-style:normal;font-variant:normal;font-weight:normal;font-stretch:normal;font-size:8.94649124px;font-family:'Estrangelo Edessa';-inkscape-font-specification:'Estrangelo Edessa';stroke-width:0.88074034"
             id="path221"
             inkscape:connector-curvature="0" />
          <path
             d="m -903.61899,127.94964 h -0.86057 v -5.65272 h 0.86057 z"
             style="font-style:normal;font-variant:normal;font-weight:normal;font-stretch:normal;font-size:8.94649124px;font-family:'Estrangelo Edessa';-inkscape-font-specification:'Estrangelo Edessa';stroke-width:0.88074034"
             id="path223"
             inkscape:connector-curvature="0" />
          <path
             d="m -897.14501,127.94964 h -0.84311 l -2.7652,-3.66946 q -0.0306,-0.0349 -0.10484,-0.13979 -0.0699,-0.10921 -0.15289,-0.23589 -0.0786,-0.12669 -0.1529,-0.249 -0.0743,-0.12232 -0.10921,-0.18784 v 4.48198 h -0.79505 v -5.65272 h 0.90426 l 2.63852,3.54278 q 0.0655,0.0917 0.15289,0.22279 0.0874,0.12668 0.17037,0.2621 0.083,0.13105 0.1529,0.25337 0.0743,0.11795 0.11357,0.19221 v -4.47325 h 0.79069 z"
             style="font-style:normal;font-variant:normal;font-weight:normal;font-stretch:normal;font-size:8.94649124px;font-family:'Estrangelo Edessa';-inkscape-font-specification:'Estrangelo Edessa';stroke-width:0.88074034"
             id="path225"
             inkscape:connector-curvature="0" />
        </g>
        <g
           aria-label="BLEND"
           style="font-style:normal;font-variant:normal;font-weight:normal;font-stretch:normal;font-size:92.02105713px;line-height:1.25;font-family:'Angsana New';-inkscape-font-specification:'Angsana New';letter-spacing:0px;word-spacing:0px;display:inline;fill:#000000;fill-opacity:1;stroke:none;stroke-width:0.88074034"
           id="text172-2">
          <path
             d="m -859.10849,123.85798 q 0,-0.15726 -0.0524,-0.29705 -0.0524,-0.14416 -0.17474,-0.25337 -0.11794,-0.10921 -0.31015,-0.17037 -0.18784,-0.0655 -0.46305,-0.0655 -0.17037,0 -0.29706,0.004 -0.12231,0.004 -0.22278,0.0131 v 1.72115 h 0.3582 q 0.5679,0 0.86495,-0.24463 0.29705,-0.24463 0.29705,-0.70768 z m 0.30579,2.53367 q 0,-0.45868 -0.31016,-0.6771 -0.31015,-0.21842 -0.91736,-0.21842 h -0.59847 v 1.86968 q 0.13978,0.0131 0.30142,0.0218 0.16599,0.004 0.36694,0.004 0.54605,0 0.85184,-0.26211 0.30579,-0.26647 0.30579,-0.73826 z m 0.87368,-0.0262 q 0,0.38005 -0.12668,0.69458 -0.12232,0.31452 -0.38879,0.54168 -0.26211,0.22716 -0.67274,0.35384 -0.40626,0.12669 -0.97415,0.12669 -0.14416,0 -0.33637,-0.009 -0.18784,-0.004 -0.38442,-0.0175 -0.19221,-0.009 -0.37131,-0.0262 -0.17911,-0.0175 -0.30579,-0.0349 v -5.56535 q 0.25774,-0.0218 0.62031,-0.0306 0.36695,-0.0131 0.75137,-0.0131 0.44558,0 0.79505,0.0961 0.35384,0.0917 0.5941,0.27084 0.24463,0.17911 0.37132,0.44121 0.12668,0.26211 0.12668,0.60284 0,0.22279 -0.0612,0.41937 -0.0612,0.19221 -0.17037,0.35384 -0.10484,0.16163 -0.25336,0.28831 -0.14853,0.12669 -0.32327,0.20969 0.23153,0.0568 0.43248,0.17036 0.20531,0.10921 0.35384,0.27521 0.15289,0.16163 0.23589,0.37569 0.0874,0.21405 0.0874,0.47615 z"
             style="font-style:normal;font-variant:normal;font-weight:normal;font-stretch:normal;font-size:8.94649124px;font-family:'Estrangelo Edessa';-inkscape-font-specification:'Estrangelo Edessa';stroke-width:0.88074034"
             id="path208"
             inkscape:connector-curvature="0" />
          <path
             d="m -854.11104,128.05602 h -2.71277 v -5.65272 h 0.86057 v 4.92756 h 1.8522 z"
             style="font-style:normal;font-variant:normal;font-weight:normal;font-stretch:normal;font-size:8.94649124px;font-family:'Estrangelo Edessa';-inkscape-font-specification:'Estrangelo Edessa';stroke-width:0.88074034"
             id="path210"
             inkscape:connector-curvature="0" />
          <path
             d="m -850.20568,128.05602 h -2.82636 v -5.65272 h 2.81762 v 0.73389 h -1.96578 v 1.71678 h 1.97452 v 0.72516 h -1.97452 v 1.75173 h 1.97452 z"
             style="font-style:normal;font-variant:normal;font-weight:normal;font-stretch:normal;font-size:8.94649124px;font-family:'Estrangelo Edessa';-inkscape-font-specification:'Estrangelo Edessa';stroke-width:0.88074034"
             id="path212"
             inkscape:connector-curvature="0" />
          <path
             d="m -843.93265,128.05602 h -0.84311 l -2.7652,-3.66946 q -0.0306,-0.035 -0.10484,-0.13979 -0.0699,-0.10921 -0.15289,-0.2359 -0.0786,-0.12668 -0.1529,-0.249 -0.0743,-0.12231 -0.10921,-0.18784 v 4.48199 h -0.79505 v -5.65272 h 0.90426 l 2.63852,3.54278 q 0.0655,0.0917 0.15289,0.22278 0.0874,0.12669 0.17037,0.26211 0.083,0.13105 0.1529,0.25337 0.0743,0.11794 0.11357,0.19221 v -4.47325 h 0.79069 z"
             style="font-style:normal;font-variant:normal;font-weight:normal;font-stretch:normal;font-size:8.94649124px;font-family:'Estrangelo Edessa';-inkscape-font-specification:'Estrangelo Edessa';stroke-width:0.88074034"
             id="path214"
             inkscape:connector-curvature="0" />
          <path
             d="m -838.48089,125.12918 q 0,-0.51984 -0.166,-0.89552 -0.16163,-0.37568 -0.46742,-0.62031 -0.30142,-0.24463 -0.74262,-0.35821 -0.43684,-0.11795 -0.98726,-0.11795 h -0.66837 v 4.19367 h 0.58973 q 0.55916,0 1.00911,-0.15289 0.45431,-0.15727 0.7732,-0.44121 0.3189,-0.28832 0.48926,-0.69458 0.17037,-0.41063 0.17037,-0.913 z m 0.88679,-0.009 q 0,0.65963 -0.24463,1.20131 -0.24026,0.54168 -0.6771,0.93047 -0.43684,0.38442 -1.04405,0.5941 -0.60721,0.20969 -1.33673,0.20969 h -1.47653 v -5.65272 h 1.54642 q 0.76884,0 1.36731,0.17474 0.60284,0.17036 1.01784,0.51547 0.415,0.34073 0.62905,0.85184 0.21842,0.50673 0.21842,1.1751 z"
             style="font-style:normal;font-variant:normal;font-weight:normal;font-stretch:normal;font-size:8.94649124px;font-family:'Estrangelo Edessa';-inkscape-font-specification:'Estrangelo Edessa';stroke-width:0.88074034"
             id="path216"
             inkscape:connector-curvature="0" />
        </g>
      </g>
    </g>
  </g>
</svg>
